<svg width="50" height="26" viewBox="0 0 50 26" fill="none" xmlns="http://www.w3.org/2000/svg">
<rect width="50" height="26" rx="13" fill="#B5DCFA"/>
<mask id="mask0" mask-type="alpha" maskUnits="userSpaceOnUse" x="0" y="0" width="50" height="26">
<rect width="50" height="26" rx="13" fill="#CDE0FF"/>
</mask>
<g mask="url(#mask0)">
<path d="M55.3808 17.0869C54.8432 17.0869 54.3213 17.1558 53.8241 17.2847C52.933 15.9978 51.4467 15.1548 49.763 15.1548C49.2159 15.1548 48.6908 15.2449 48.199 15.4091C47.37 11.7406 44.0927 9 40.1736 9C35.6283 9 31.9437 12.6847 31.9437 17.2301C31.9437 17.3239 31.9478 17.4167 31.9506 17.5093C31.3722 17.328 30.7568 17.2301 30.1186 17.2301C26.7395 17.2301 24 19.9691 24 23.3492C24 26.7283 26.7396 29.4676 30.1186 29.4676H48.4385H51.8385H55.3811C58.8 29.4676 61.5718 26.696 61.5718 23.2772C61.5715 19.8583 58.7998 17.0869 55.3808 17.0869Z" fill="#DEEFFE"/>
</g>
<path d="M30.034 5.95108C29.7764 5.95108 29.5264 5.98475 29.2882 6.04773C28.8613 5.41895 28.1493 5.00711 27.3426 5.00711C27.0805 5.00711 26.829 5.05114 26.5933 5.13136C26.1962 3.33898 24.6261 2 22.7485 2C20.5709 2 18.8057 3.80028 18.8057 6.02105C18.8057 6.06685 18.8077 6.1122 18.809 6.15743C18.5319 6.06886 18.2371 6.02105 17.9313 6.02105C16.3125 6.02105 15 7.35928 15 9.01069C15 10.6617 16.3125 12 17.9313 12H26.7081H28.3369H30.0341C31.6721 12 33 10.6459 33 8.97554C32.9999 7.30511 31.672 5.95108 30.034 5.95108Z" fill="#D8EDFE"/>
<path d="M13 23C18.5228 23 23 18.5228 23 13C23 7.47715 18.5228 3 13 3C7.47715 3 3 7.47715 3 13C3 18.5228 7.47715 23 13 23Z" fill="#FFC700"/>
<path d="M16.2798 19.7201C10.7571 19.7201 6.27998 15.2431 6.27998 9.72033C6.27998 7.79925 6.8228 6.00546 7.76182 4.48184C4.90534 6.24235 3.00049 9.39817 3.00049 12.9998C3.00049 18.5225 7.47752 22.9996 13.0003 22.9996C16.602 22.9996 19.7578 21.0948 21.5183 18.2383C19.9947 19.1773 18.2009 19.7201 16.2798 19.7201Z" fill="#FFA800"/>
</svg>
