<svg id="Layer_1" data-name="Layer 1" xmlns="http://www.w3.org/2000/svg" viewBox="0 0 1000 316.83"><defs><style>.cls-1{fill:#414042;}</style></defs><path class="cls-1" d="M435.51,32.25h0a12.38,12.38,0,0,0-12.38-12.38H368.65a12.39,12.39,0,0,0-12.38,12.39v94.09a12.38,12.38,0,0,0,12.38,12.38h0A12.38,12.38,0,0,0,381,126.34V99.11h22.29A12.38,12.38,0,0,0,415.7,86.73h0a12.38,12.38,0,0,0-12.38-12.38H381V44.63h42.1A12.38,12.38,0,0,0,435.51,32.25Z"/><rect class="cls-1" x="663.29" y="19.86" width="24.76" height="118.86" rx="12.38"/><path class="cls-1" d="M987.62,19.81H933.14a12.38,12.38,0,0,0-12.38,12.38h0a12.39,12.39,0,0,0,12.38,12.39H948v81.71a12.38,12.38,0,0,0,12.38,12.38h0a12.38,12.38,0,0,0,12.38-12.38V44.58h14.86A12.39,12.39,0,0,0,1000,32.19h0A12.38,12.38,0,0,0,987.62,19.81Z"/><path class="cls-1" d="M643.45,32.25h0a12.39,12.39,0,0,0-12.39-12.38H576.59a12.38,12.38,0,0,0-12.38,12.38v94.1a12.38,12.38,0,0,0,12.38,12.38h54.47a12.39,12.39,0,0,0,12.39-12.38h0A12.39,12.39,0,0,0,631.06,114H589V91.68h22.28a12.39,12.39,0,0,0,12.39-12.39h0a12.39,12.39,0,0,0-12.39-12.38H589V44.63h42.09A12.39,12.39,0,0,0,643.45,32.25Z"/><path class="cls-1" d="M643.39,190.67h0A12.38,12.38,0,0,0,631,178.29H576.53a12.38,12.38,0,0,0-12.38,12.38v94.1a12.39,12.39,0,0,0,12.38,12.38H631a12.38,12.38,0,0,0,12.38-12.38h0A12.38,12.38,0,0,0,631,272.39h-42.1V250.1H611.2a12.38,12.38,0,0,0,12.38-12.38h0a12.38,12.38,0,0,0-12.38-12.38H588.91V203.06H631A12.39,12.39,0,0,0,643.39,190.67Z"/><path class="cls-1" d="M888.69,19.81a12.38,12.38,0,0,0-12.38,12.38V66.86H841.65V32.19a12.38,12.38,0,0,0-24.76,0v94.1a12.38,12.38,0,0,0,24.76,0V91.62h34.66v34.67a12.39,12.39,0,0,0,24.77,0V32.19A12.39,12.39,0,0,0,888.69,19.81Z"/><path class="cls-1" d="M784.41,141.12H769.33c-33.17,0-61-26.25-61.59-59.41A60.66,60.66,0,0,1,768.32,20h15a12.3,12.3,0,0,1,12.29,12.3h0a12.3,12.3,0,0,1-12.29,12.3H769.08c-19.58,0-36.15,15.32-36.74,34.9a36,36,0,0,0,36,37.07h3.79v-15a12.3,12.3,0,0,1,12.3-12.3h0a12.3,12.3,0,0,1,12.3,12.3v27.32A12.3,12.3,0,0,1,784.41,141.12Z"/><path class="cls-1" d="M423.16,299.39H409.7c-33.17,0-61-26.25-61.59-59.41a60.65,60.65,0,0,1,60.58-61.76h15a12.29,12.29,0,0,1,12.3,12.3h0a12.3,12.3,0,0,1-12.3,12.3H409.45c-19.58,0-36.16,15.32-36.74,34.89a36,36,0,0,0,36,37.08h14.47a12.3,12.3,0,0,1,12.3,12.3h0A12.3,12.3,0,0,1,423.16,299.39Z"/><path class="cls-1" d="M545.05,55.22C544.76,35.54,528.21,20,508.52,20H480.08v-.09H467.7a12.38,12.38,0,0,0-12.38,12.38v94.1a12.38,12.38,0,0,0,12.38,12.38h0a12.38,12.38,0,0,0,12.38-12.38V91.59h8.28L519.7,132.4a12.38,12.38,0,0,0,10.81,6.33h.91a12.38,12.38,0,0,0,10.69-18.62L516.55,90.84A35.87,35.87,0,0,0,545.05,55.22Zm-65-10.67h29.16a11.23,11.23,0,0,1,0,22.45H480.08Z"/><path class="cls-1" d="M545,213.65c-.3-19.68-16.85-35.27-36.53-35.27H480v-.09H467.65a12.38,12.38,0,0,0-12.38,12.38v94.1a12.38,12.38,0,0,0,12.38,12.38h0A12.38,12.38,0,0,0,480,284.77V250h8.27l31.35,40.81a12.38,12.38,0,0,0,10.8,6.33h.91a12.39,12.39,0,0,0,10.7-18.62L516.5,249.27A35.88,35.88,0,0,0,545,213.65ZM480,203h29.15a11.23,11.23,0,1,1,0,22.45H480Z"/><path class="cls-1" d="M764.93,178.3a12.12,12.12,0,0,0-11.87,9.64L742.51,232.5,732.3,189.38a12.12,12.12,0,0,0-12.07-11.08h-.14A12.11,12.11,0,0,0,708,189.38L697.81,232.5l-10.55-44.56a12.11,12.11,0,0,0-11.87-9.64h0a12.12,12.12,0,0,0-11.86,14.59l22.41,94.62c0,.08,0,.15.07.23a12.78,12.78,0,0,0,.49,1.63c.07.18.15.35.23.52.17.38.36.76.56,1.12.11.18.2.37.31.54a11.91,11.91,0,0,0,.94,1.27c.14.16.28.32.43.47a10.43,10.43,0,0,0,1,.92,2.7,2.7,0,0,0,.31.28,11.48,11.48,0,0,0,1.42,1l.4.23a12.22,12.22,0,0,0,1.6.73l0,0a11.64,11.64,0,0,0,1.78.47l.45.08a11.17,11.17,0,0,0,1.85.16h.07a11.26,11.26,0,0,0,1.85-.16l.44-.08a11.64,11.64,0,0,0,1.78-.47l.05,0a12.22,12.22,0,0,0,1.6-.73l.4-.23a12.28,12.28,0,0,0,1.42-1,3.92,3.92,0,0,0,.31-.28,10.43,10.43,0,0,0,1-.92l.43-.47a11.83,11.83,0,0,0,.93-1.27c.11-.17.21-.36.31-.54a11.78,11.78,0,0,0,.57-1.12c.07-.17.16-.34.22-.52a11.38,11.38,0,0,0,.5-1.63,2,2,0,0,1,.07-.23l10.47-44.23,10.48,44.23a2,2,0,0,0,.07.23,10.2,10.2,0,0,0,.49,1.63c.06.18.15.35.22.52A11.78,11.78,0,0,0,732,291c.1.18.2.37.31.54a10.69,10.69,0,0,0,.94,1.27,6.29,6.29,0,0,0,.43.47,10.32,10.32,0,0,0,1,.92c.11.09.21.2.32.28a10.77,10.77,0,0,0,1.42,1l.39.23a12.22,12.22,0,0,0,1.6.73l0,0a11.64,11.64,0,0,0,1.78.47l.44.08a11.26,11.26,0,0,0,1.85.16h.07a11.39,11.39,0,0,0,1.86-.16l.44-.08a11.64,11.64,0,0,0,1.78-.47l0,0a12.72,12.72,0,0,0,1.59-.73l.4-.23a11.48,11.48,0,0,0,1.42-1c.11-.08.21-.19.32-.28a11.76,11.76,0,0,0,1-.92c.15-.15.29-.31.43-.47a11.91,11.91,0,0,0,.94-1.27c.11-.17.2-.36.31-.54a10.79,10.79,0,0,0,.56-1.13c.08-.17.16-.33.23-.51a12.31,12.31,0,0,0,.49-1.63c0-.08.05-.15.07-.23l22.41-94.62A12.11,12.11,0,0,0,764.93,178.3Z"/><path class="cls-1" d="M289.21,227.25a38.73,38.73,0,0,0,4.24-17.43V39A38.95,38.95,0,0,0,233.71,6.09L146.72,61l-87-54.89A38.45,38.45,0,0,0,20.14,4.92,38.47,38.47,0,0,0,0,39V210.45A38.83,38.83,0,0,0,17.6,243L120.52,310.5a39.19,39.19,0,0,0,41.51.75l112.62-68.1a38.85,38.85,0,0,0,13.12-13.25c.1-.14.23-.24.32-.39a4.93,4.93,0,0,0,.23-.46c.23-.4.4-.82.61-1.22C289,227.63,289.14,227.45,289.21,227.25ZM32,26.43a14.21,14.21,0,0,1,14.63.43l77.08,48.63L92.47,95.21A12.28,12.28,0,1,0,105.57,116l47.49-30,.44-.27,93.32-58.88A14.39,14.39,0,0,1,268.89,39V202.87l-99.46-62.79,29.73-18.67a12.28,12.28,0,0,0-13.07-20.79L24.55,202.09V39A14.21,14.21,0,0,1,32,26.43Zm117.33,263.8A14.5,14.5,0,0,1,134,290L123.4,283l56.73-35.81A12.28,12.28,0,0,0,167,226.44l-66.19,41.78L82.18,256l64-40.43a12.28,12.28,0,1,0-13.11-20.76L59.61,241.2l-25-16.41,111.8-70.22,111.21,70.2Z"/></svg>