<svg id="Layer_1" data-name="Layer 1" xmlns="http://www.w3.org/2000/svg" viewBox="0 0 923.75 996.78"><defs><style>.cls-1{fill:#141414;}</style></defs><title>UNITED BROTHERS_LOGO</title><path class="cls-1" d="M50.24,807.12c30.05,0,50.24-23.33,50.24-58V661.85H79.17v87.22c0,23-10.82,36.73-28.93,36.73s-28.93-13.73-28.93-36.73V661.85H0v87.22C0,783.79,20.19,807.12,50.24,807.12Z"/><path class="cls-1" d="M146.52,718.6c0-23,10.81-36.74,28.92-36.74s28.93,13.73,28.93,36.74v88.52h21.31V718.6c0-34.73-20.19-58.06-50.24-58.06S125.2,683.87,125.2,718.6v88.52h21.32Z"/><rect class="cls-1" x="252.01" y="661.85" width="21.31" height="145.27"/><polygon class="cls-1" points="392.62 661.85 294.75 661.85 294.75 683.16 333.03 683.16 333.03 807.12 354.34 807.12 354.34 683.16 392.62 683.16 392.62 661.85"/><polygon class="cls-1" points="354.82 872.73 393.1 872.73 393.1 996.69 414.42 996.69 414.42 872.73 452.7 872.73 452.7 851.42 354.82 851.42 354.82 872.73"/><polygon class="cls-1" points="506.87 785.8 438.11 785.8 438.11 745.14 478.31 745.14 478.31 723.82 438.11 723.82 438.11 683.16 506.87 683.16 506.87 661.85 416.8 661.85 416.8 807.12 506.87 807.12 506.87 785.8"/><polygon class="cls-1" points="599.13 996.77 689.2 996.77 689.2 975.46 620.44 975.46 620.44 934.8 658.72 934.8 658.72 913.49 620.44 913.49 620.44 872.82 689.2 872.82 689.2 851.51 599.13 851.51 599.13 996.77"/><path class="cls-1" d="M629.59,734.48c0-45.48-26.85-72.63-71.82-72.63H531.22V807.12h26.55C602.74,807.12,629.59,780,629.59,734.48Zm-21.31,0c0,33.58-17.47,51.32-50.51,51.32h-5.23V683.16h5.23C590.81,683.16,608.28,700.91,608.28,734.48Z"/><path class="cls-1" d="M84.09,914.47a37.67,37.67,0,0,0,8.14-24.12C92.23,866.84,73.66,851,46,851H1.3V996.56H66c26.08,0,43.6-16.69,43.6-41.54C109.59,936.48,99.88,921.15,84.09,914.47Zm4.19,38.62c0,13-7.92,20.23-22.29,20.23H22.62V930.26H66C79.53,930.26,88.28,939.22,88.28,953.09Zm-65.66-46.2v-36.6H46c11.35,0,24.89,3.12,24.89,18,0,16.17-15.6,18.59-24.89,18.59Z"/><path class="cls-1" d="M216,890.35c0-23.51-18.57-39.31-46.21-39.31H125.1V996.42h21.31V930.26h20l44.1,66.16h25.61l-46.32-69.49C206.5,920.89,216,907.66,216,890.35Zm-21.32-2.05c0,16.17-15.59,18.59-24.89,18.59H146.41v-36.6h23.41C181.18,870.29,194.71,873.41,194.71,888.3Z"/><path class="cls-1" d="M803.11,890.35c0-23.51-18.57-39.31-46.2-39.31H712.18V996.42h21.31V930.26h20l44.1,66.16h25.62l-46.33-69.49C793.59,920.89,803.11,907.66,803.11,890.35ZM781.8,888.3c0,16.17-15.6,18.59-24.89,18.59H733.49v-36.6h23.42C768.26,870.29,781.8,873.41,781.8,888.3Z"/><path class="cls-1" d="M880.16,913.4h-3.73c-8.42,0-19-2.38-21.65-13.71A21.38,21.38,0,0,1,859,881.47a22.93,22.93,0,0,1,18-8.74h38.62l1.62-.07V853l-.08-1.62H876.43c-25.66,0-43.58,17.09-43.58,41.57,0,23,19.33,41.72,43.08,41.72h4.23c8.41,0,19,2.38,21.65,13.71a21.39,21.39,0,0,1-4.2,18.22,22.89,22.89,0,0,1-18,8.74H841l-1.61.07v19.62l.07,1.62H880.7c24.14,0,43-19,43-43.3C923.75,929.47,906.23,913.4,880.16,913.4Z"/><polygon class="cls-1" points="551.77 913.4 496.52 913.4 496.52 851.42 475.21 851.42 475.21 996.69 496.52 996.69 496.52 934.71 551.77 934.71 551.77 996.69 573.09 996.69 573.09 851.42 551.77 851.42 551.77 913.4"/><path class="cls-1" d="M296.05,851.42a49,49,0,0,0-48.94,48.94v47.39a48.94,48.94,0,0,0,97.88,0V900.36A49,49,0,0,0,296.05,851.42Zm27.62,96.33a27.63,27.63,0,1,1-55.25,0V900.36a27.63,27.63,0,1,1,55.25,0Z"/><path class="cls-1" d="M565.4,291.6l-2-.34a17.55,17.55,0,0,0-20.19,14.43,231.17,231.17,0,0,1-76.13,136.74c-34.69-6.67-72.73-18.65-112-35.1q15.17-8,30.29-16.72c78.8-45.5,146.42-100,190.4-153.45,47.65-57.92,62.55-109.47,42-145.14-19.89-34.44-69.48-47.7-139.64-37.35l.28,1.87c-6.37-5-12.89-9.76-19.72-14.16A267.27,267.27,0,0,0,151.84,55C80.73,44.2,30.69,57.2,10.59,92c-20.6,35.67-5.7,87.22,42,145.14,44,53.46,111.6,108,190.4,153.45,10.09,5.83,20.22,11.33,30.35,16.67-43,18-84.51,30.69-121.78,36.89C94.67,453.62,53.35,446.46,41,425c-9.75-16.87-2.94-44.7,18.15-77.42A264.76,264.76,0,0,0,91.4,415.05a17.54,17.54,0,1,0,29.22-19.42,229.37,229.37,0,0,1-35.71-91.15,17.54,17.54,0,0,0-31.14-8.56c-48.64,58.55-64,110.62-43.18,146.62,15.5,26.86,48.84,40.79,95.94,40.79a304.42,304.42,0,0,0,45.31-3.75,267.2,267.2,0,0,0,324.63.06c71.11,10.8,121.16-2.3,141.25-37.1,20.54-35.59,5.75-87-41.66-144.77A17.53,17.53,0,0,0,565.4,291.6ZM41,109.56c9.75-16.89,37.35-24.86,76.29-22.94A267.49,267.49,0,0,0,59.21,187C38.13,154.3,31.24,126.4,41,109.56ZM260.49,360.23C189.12,319,127.71,270.48,86.27,222.68,107.39,113.51,202,35.08,314.15,35.08c89,0,171.32,51.94,209.68,132.31a17.54,17.54,0,1,0,31.66-15.11A267.51,267.51,0,0,0,511,86.6c38.93-1.89,66.7,6.2,76.37,23,12.39,21.45-2.06,60.82-38.67,105.31-41.37,50.29-105.6,101.91-180.85,145.36-17.87,10.32-35.83,19.84-53.69,28.55C296.28,380.08,278.34,370.54,260.49,360.23Zm53.66,139.25a232.3,232.3,0,0,1-114.09-30c36.24-9.55,74.86-23.73,114.06-41.87,39.36,18.21,78.14,32.45,114.5,42A232.5,232.5,0,0,1,314.15,499.48ZM587.33,425c-9.72,16.86-37.29,24.9-76.25,23a267.71,267.71,0,0,0,58.07-100.44C590.23,380.27,597.05,408.16,587.33,425Z"/></svg>