<svg id="Layer_1" data-name="Layer 1" xmlns="http://www.w3.org/2000/svg" viewBox="0 0 1662.03 521.35"><defs><style>.cls-1{fill:#141414;}</style></defs><title>UNITED BROTHERS_LOGO</title><path class="cls-1" d="M788.52,285.9c30.05,0,50.24-23.32,50.24-58V140.64H817.45v87.22c0,23-10.81,36.73-28.93,36.73s-28.92-13.73-28.92-36.73V140.64H738.28v87.22C738.28,262.58,758.47,285.9,788.52,285.9Z"/><path class="cls-1" d="M884.8,197.38c0-23,10.82-36.73,28.93-36.73s28.92,13.73,28.92,36.73V285.9H964V197.38c0-34.72-20.19-58-50.24-58s-50.24,23.33-50.24,58V285.9H884.8Z"/><rect class="cls-1" x="990.29" y="140.64" width="21.31" height="145.27"/><polygon class="cls-1" points="1130.91 140.64 1033.03 140.64 1033.03 161.95 1071.31 161.95 1071.31 285.9 1092.62 285.9 1092.62 161.95 1130.91 161.95 1130.91 140.64"/><polygon class="cls-1" points="1093.11 351.52 1131.39 351.52 1131.39 475.48 1152.7 475.48 1152.7 351.52 1190.98 351.52 1190.98 330.21 1093.11 330.21 1093.11 351.52"/><polygon class="cls-1" points="1245.15 264.59 1176.4 264.59 1176.4 223.93 1216.6 223.93 1216.6 202.61 1176.4 202.61 1176.4 161.95 1245.15 161.95 1245.15 140.64 1155.08 140.64 1155.08 285.9 1245.15 285.9 1245.15 264.59"/><polygon class="cls-1" points="1337.42 475.56 1427.48 475.56 1427.48 454.25 1358.73 454.25 1358.73 413.59 1397.01 413.59 1397.01 392.27 1358.73 392.27 1358.73 351.61 1427.48 351.61 1427.48 330.3 1337.42 330.3 1337.42 475.56"/><path class="cls-1" d="M1367.88,213.27c0-45.48-26.85-72.63-71.83-72.63h-26.54V285.9h26.54C1341,285.9,1367.88,258.75,1367.88,213.27Zm-71.83,51.32h-5.23V162h5.23c33,0,50.51,17.75,50.51,51.32S1329.1,264.59,1296.05,264.59Z"/><path class="cls-1" d="M822.37,393.26a37.62,37.62,0,0,0,8.14-24.12c0-23.52-18.56-39.32-46.2-39.32H739.58V475.35h64.7c26.07,0,43.59-16.69,43.59-41.54C847.87,415.27,838.16,399.94,822.37,393.26Zm-38.06-7.58H760.9v-36.6h23.41c11.36,0,24.89,3.12,24.89,18C809.2,383.26,793.61,385.68,784.31,385.68ZM760.9,409.05h43.38c13.53,0,22.28,9,22.28,22.83,0,13-7.91,20.23-22.28,20.23H760.9Z"/><path class="cls-1" d="M954.31,369.14c0-23.52-18.57-39.32-46.2-39.32H863.38V475.2h21.31V409.05h20l44.1,66.15h25.62l-46.33-69.48C944.79,399.68,954.31,386.45,954.31,369.14ZM933,367.09c0,16.17-15.6,18.59-24.89,18.59H884.69v-36.6h23.42C919.46,349.08,933,352.2,933,367.09Z"/><path class="cls-1" d="M1541.39,369.14c0-23.52-18.57-39.32-46.2-39.32h-44.73V475.2h21.32V409.05h20l44.11,66.15h25.61l-46.32-69.48C1531.87,399.68,1541.39,386.45,1541.39,369.14Zm-69.61-20.06h23.41c11.35,0,24.89,3.12,24.89,18,0,16.17-15.59,18.59-24.89,18.59h-23.41Z"/><path class="cls-1" d="M1618.45,392.19h-3.74c-8.42,0-19-2.38-21.65-13.72a21.39,21.39,0,0,1,4.2-18.22,22.94,22.94,0,0,1,18-8.73h38.61l1.62-.07V331.83l-.07-1.62h-40.75c-25.66,0-43.57,17.09-43.57,41.57,0,23,19.32,41.72,43.07,41.72h4.24c8.41,0,19,2.38,21.64,13.71a21.39,21.39,0,0,1-4.2,18.22,22.91,22.91,0,0,1-18,8.73h-38.61l-1.62.08v19.62l.08,1.62H1619c24.14,0,43-19,43-43.3C1662,408.26,1644.52,392.19,1618.45,392.19Z"/><polygon class="cls-1" points="1290.06 392.19 1234.81 392.19 1234.81 330.21 1213.5 330.21 1213.5 475.48 1234.81 475.48 1234.81 413.5 1290.06 413.5 1290.06 475.48 1311.37 475.48 1311.37 330.21 1290.06 330.21 1290.06 392.19"/><path class="cls-1" d="M1034.33,330.21a49,49,0,0,0-48.94,48.94v47.39a48.94,48.94,0,0,0,97.88,0V379.15A49,49,0,0,0,1034.33,330.21Zm-27.62,48.94a27.63,27.63,0,1,1,55.25,0v47.39a27.63,27.63,0,0,1-55.25,0Z"/><path class="cls-1" d="M549.92,284.4l-2-.33a17.12,17.12,0,0,0-19.7,14.06A225.44,225.44,0,0,1,454,431.49c-33.84-6.5-70.94-18.18-109.22-34.22q14.77-7.81,29.53-16.31C451.19,336.58,517.13,283.44,560,231.3,606.5,174.81,621,124.53,601,89.74c-19.4-33.58-67.76-46.52-136.19-36.42L465,55c-6.19-4.82-12.58-9.4-19.21-13.67A260.65,260.65,0,0,0,146.58,53.62C77.23,43.11,28.42,55.78,8.82,89.74c-20.09,34.79-5.56,85.07,40.92,141.56C92.63,283.44,158.58,336.59,235.44,381q14.72,8.51,29.53,16.29c-41.9,17.55-82.38,29.9-118.71,35.95-55.43,9.22-95.73,2.23-107.81-18.7C29,398,35.58,370.91,56.15,339A258.27,258.27,0,0,0,87.64,404.8a17.11,17.11,0,1,0,28.49-18.94A223.8,223.8,0,0,1,81.31,297a17.11,17.11,0,0,0-30.38-8.35C3.5,345.72-11.46,396.49,8.82,431.61c15.12,26.19,47.63,39.77,93.58,39.77a296.9,296.9,0,0,0,44.19-3.65,260.6,260.6,0,0,0,316.6.06c69.36,10.54,118.16-2.25,137.76-36.18,20-34.71,5.61-84.86-40.63-141.19A17.07,17.07,0,0,0,549.92,284.4ZM38.45,106.85C48,90.38,74.88,82.61,112.85,84.48a261.1,261.1,0,0,0-56.61,97.93C35.68,150.49,29,123.28,38.45,106.85ZM252.54,351.33c-69.6-40.18-129.49-87.54-169.91-134.15,20.6-106.47,112.83-183,222.25-183,86.82,0,167.09,50.65,204.5,129a17.11,17.11,0,0,0,30.88-14.74A261,261,0,0,0,497,84.45c37.9-1.82,64.94,6.07,74.37,22.4,12.08,20.93-2,59.32-37.72,102.71-40.35,49.05-103,99.39-176.38,141.77-17.43,10.06-35,19.35-52.36,27.84C287.46,370.69,270,361.38,252.54,351.33Zm52.34,135.81a226.47,226.47,0,0,1-111.26-29.27c35.33-9.31,73-23.14,111.23-40.84,38.38,17.77,76.21,31.66,111.67,41A226.81,226.81,0,0,1,304.88,487.14ZM571.32,414.5c-9.49,16.44-36.38,24.28-74.37,22.41a261.11,261.11,0,0,0,56.63-98C574.14,370.87,580.8,398.08,571.32,414.5Z"/></svg>