<svg width="172" height="23" viewBox="0 0 172 23" fill="none" xmlns="http://www.w3.org/2000/svg">
<path d="M36.0732 3.8743H39.8049H74.9878C75.4146 3.8743 75.8293 3.95966 76.2073 4.1182C76.5976 4.28893 76.9512 4.52064 77.2317 4.81332C77.5244 5.09381 77.7683 5.44747 77.9268 5.83771C78.0854 6.21576 78.1707 6.63039 78.1707 7.05722C78.1707 7.48405 78.0854 7.89869 77.9268 8.27674C77.7561 8.66698 77.5244 9.00844 77.2317 9.30113C76.9512 9.59381 76.5976 9.82552 76.2073 9.99625C75.8293 10.1548 75.4146 10.2401 74.9878 10.2401H46.5122V13.2889H74.9878C75.4146 13.2889 75.8293 13.3743 76.2073 13.5328C76.5976 13.6914 76.9512 13.9353 77.2317 14.2158C77.5244 14.5084 77.7683 14.8621 77.9268 15.2523C78.0854 15.6304 78.1707 16.045 78.1707 16.4719C78.1707 16.8987 78.0854 17.3133 77.9268 17.6792C77.7561 18.0694 77.5244 18.4231 77.2317 18.7158C76.9512 18.9962 76.5976 19.2402 76.2073 19.3987C75.8293 19.5572 75.4146 19.6426 74.9878 19.6426H46.5122V22.6914H74.9878C75.8415 22.6914 76.6341 22.5328 77.3659 22.228C78.1219 21.9109 78.8171 21.4475 79.3902 20.8621C79.9756 20.2889 80.439 19.606 80.7561 18.8377C81.0488 18.1182 81.2195 17.3133 81.2195 16.4719C81.2195 15.7645 81.1098 15.0938 80.8902 14.4719C80.6707 13.8255 80.3537 13.2158 79.939 12.6792L79.2317 11.7645L79.939 10.8377C80.3537 10.3011 80.6707 9.70356 80.8902 9.04503C81.1098 8.42308 81.2195 7.75235 81.2195 7.05722C81.2195 6.21576 81.0488 5.41088 80.7561 4.67917C80.439 3.92308 79.9756 3.22795 79.3902 2.65478C78.8171 2.06942 78.1219 1.606 77.3659 1.28893C76.6341 0.996247 75.8415 0.825515 74.9878 0.825515H39.8049H36.0732H10.939C9.46341 0.825515 8.04878 1.1182 6.76829 1.65478C5.43902 2.20356 4.23171 3.02064 3.21951 4.03283C2.20732 5.04503 1.39024 6.25235 0.829268 7.59381C0.304878 8.8743 0 10.2767 0 11.7645C0 13.2402 0.304878 14.6548 0.829268 15.9353C1.39024 17.2645 2.20732 18.4719 3.21951 19.4841C4.23171 20.4962 5.43902 21.3133 6.76829 21.8743C8.04878 22.3987 9.46341 22.6914 10.939 22.6914H35.2317H39.8049V10.2401H10.1829V13.2889H36.7561V19.6426H10.939C9.87805 19.6426 8.86585 19.4353 7.93902 19.045C6.96341 18.6426 6.09756 18.0572 5.36585 17.3255C4.64634 16.606 4.06098 15.7402 3.65854 14.7645C3.26829 13.8377 3.04878 12.8133 3.04878 11.7645C3.04878 10.7036 3.26829 9.69137 3.65854 8.75235C4.06098 7.78893 4.64634 6.91088 5.36585 6.19137C6.09756 5.47186 6.96341 4.88649 7.93902 4.47186C8.86585 4.09381 9.87805 3.8743 10.939 3.8743H36.0732ZM100.39 22.6914H103.439V11.6304C109.854 15.4962 116.439 19.4475 121.732 22.6426V19.0328C116.122 15.6426 109.695 11.7645 103.439 7.98405V4.16698C103.439 3.26454 104.134 2.69137 105.146 3.27673C114.512 8.93527 127.915 16.9841 137.28 22.6426V22.6548H140.329V7.33771C140.329 6.94747 140.341 6.606 140.463 6.17917V6.16698C140.598 5.69137 140.829 5.25234 141.268 4.81332C141.549 4.52064 141.902 4.28893 142.293 4.1182C142.671 3.95966 143.085 3.8743 143.512 3.8743H172V0.825515H143.512C142.671 0.825515 141.866 0.996247 141.134 1.28893C140.378 1.606 139.683 2.06942 139.11 2.65478C138.537 3.22795 138.061 3.92308 137.756 4.67917C137.159 6.09381 137.268 7.44747 137.28 8.92308V19.0328C128.122 13.4962 116.768 6.64259 107.61 1.106C104.159 -1.06473 100.39 -0.0525338 100.39 4.25234V6.14259C97.5 4.39869 94.6829 2.70356 92.0488 1.106C88.6098 -1.06473 84.8415 -0.0525338 84.8415 4.25234V22.6914H87.8902V4.16698C87.8902 3.26454 88.5732 2.69137 89.5854 3.27673C92.8171 5.22795 96.5366 7.47186 100.39 9.78893V22.6914ZM172 10.2401H146.695V13.2889H172V10.2401Z" fill="#FFFFFF"/>
</svg>
