<svg width="512" height="164" viewBox="0 0 512 164" fill="none" xmlns="http://www.w3.org/2000/svg">
<g clip-path="url(#clip0)">
<path d="M222.981 16.663C222.981 14.9666 222.313 13.3396 221.125 12.14C219.936 10.9404 218.324 10.2665 216.642 10.2665H188.749C187.067 10.2678 185.455 10.9429 184.266 12.1433C183.078 13.3437 182.41 14.9712 182.41 16.6682V65.2829C182.41 66.9794 183.078 68.6064 184.267 69.806C185.455 71.0055 187.068 71.6795 188.749 71.6795C190.428 71.6753 192.037 70.9989 193.223 69.7987C194.408 68.5984 195.073 66.9724 195.072 65.2777V51.2085H206.484C207.318 51.2105 208.144 51.0466 208.915 50.726C209.686 50.4055 210.386 49.9346 210.976 49.3404C211.567 48.7463 212.035 48.0404 212.354 47.2634C212.674 46.4863 212.838 45.6532 212.838 44.8119C212.838 43.1155 212.171 41.4885 210.982 40.2889C209.793 39.0893 208.181 38.4154 206.5 38.4154H195.072V23.0596H216.627C217.461 23.0616 218.287 22.8976 219.058 22.5771C219.828 22.2566 220.529 21.7857 221.119 21.1915C221.709 20.5974 222.178 19.8915 222.497 19.1145C222.817 18.3374 222.981 17.5043 222.981 16.663Z" fill="white"/>
<path d="M352.281 16.6579C352.281 13.1252 349.443 10.2614 345.943 10.2614C342.442 10.2614 339.604 13.1252 339.604 16.6579V65.2778C339.604 68.8105 342.442 71.6743 345.943 71.6743C349.443 71.6743 352.281 68.8105 352.281 65.2778V16.6579Z" fill="white"/>
<path d="M505.661 10.2353H477.767C476.086 10.2353 474.474 10.9092 473.285 12.1088C472.097 13.3084 471.429 14.9354 471.429 16.6319C471.429 18.3288 472.096 19.9563 473.285 21.1567C474.473 22.3571 476.086 23.0322 477.767 23.0336H485.376V65.2517C485.376 66.9482 486.043 68.5752 487.232 69.7748C488.421 70.9743 490.033 71.6483 491.714 71.6483C493.395 71.6483 495.007 70.9743 496.196 69.7748C497.385 68.5752 498.053 66.9482 498.053 65.2517V23.0336H505.661C507.343 23.0322 508.955 22.3571 510.143 21.1567C511.332 19.9563 512 18.3288 512 16.6319C512 14.9354 511.332 13.3084 510.143 12.1088C508.954 10.9092 507.342 10.2353 505.661 10.2353Z" fill="white"/>
<path d="M329.447 16.663C329.446 14.9661 328.777 13.3391 327.587 12.1397C326.398 10.9402 324.785 10.2665 323.103 10.2665H295.215C293.533 10.2665 291.921 10.9404 290.732 12.14C289.544 13.3396 288.876 14.9666 288.876 16.663V65.2829C288.876 66.9794 289.544 68.6064 290.732 69.806C291.921 71.0055 293.533 71.6795 295.215 71.6795H323.103C324.785 71.6795 326.398 71.0057 327.587 69.8063C328.777 68.6068 329.446 66.9799 329.447 65.2829C329.441 63.5887 328.771 61.9657 327.582 60.7696C326.393 59.5735 324.782 58.9019 323.103 58.9019H301.568V47.3695H312.976C314.658 47.3695 316.272 46.695 317.462 45.4945C318.651 44.2939 319.32 42.6656 319.32 40.9678C319.318 39.2709 318.649 37.6439 317.46 36.4444C316.27 35.245 314.657 34.5713 312.976 34.5713H301.568V23.0596H323.119C324.797 23.0555 326.406 22.3799 327.592 21.1809C328.779 19.9819 329.446 18.3573 329.447 16.663Z" fill="white"/>
<path d="M329.416 98.5158C329.416 97.6754 329.252 96.8432 328.933 96.0668C328.614 95.2904 328.147 94.585 327.558 93.9909C326.969 93.3969 326.269 92.9258 325.5 92.6047C324.73 92.2835 323.905 92.1186 323.072 92.1193H295.184C293.503 92.1193 291.89 92.7932 290.702 93.9928C289.513 95.1924 288.845 96.8193 288.845 98.5158V147.136C288.847 148.832 289.515 150.458 290.703 151.657C291.892 152.856 293.503 153.531 295.184 153.532H323.072C324.753 153.532 326.366 152.858 327.554 151.659C328.743 150.459 329.411 148.832 329.411 147.136C329.411 145.439 328.743 143.812 327.554 142.613C326.366 141.413 324.753 140.739 323.072 140.739H301.517V129.222H312.935C314.616 129.222 316.228 128.548 317.417 127.349C318.606 126.149 319.273 124.522 319.273 122.826C319.273 121.129 318.606 119.502 317.417 118.303C316.228 117.103 314.616 116.429 312.935 116.429H301.522V104.918H323.072C323.905 104.918 324.73 104.752 325.5 104.43C326.27 104.108 326.969 103.637 327.558 103.042C328.147 102.448 328.614 101.742 328.933 100.966C329.252 100.189 329.416 99.3565 329.416 98.5158Z" fill="white"/>
<path d="M455.01 10.2353C453.329 10.2353 451.716 10.9092 450.528 12.1088C449.339 13.3084 448.671 14.9354 448.671 16.6319V34.5453H430.925V16.6319C430.925 14.9354 430.257 13.3084 429.069 12.1088C427.88 10.9092 426.268 10.2353 424.587 10.2353C422.906 10.2353 421.293 10.9092 420.105 12.1088C418.916 13.3084 418.248 14.9354 418.248 16.6319V65.2517C418.248 66.9482 418.916 68.5752 420.105 69.7748C421.293 70.9743 422.906 71.6483 424.587 71.6483C426.268 71.6483 427.88 70.9743 429.069 69.7748C430.257 68.5752 430.925 66.9482 430.925 65.2517V47.3383H448.671V65.2517C448.718 66.9174 449.407 68.499 450.591 69.6604C451.775 70.8218 453.361 71.4716 455.012 71.4716C456.663 71.4716 458.25 70.8218 459.434 69.6604C460.618 68.499 461.306 66.9174 461.353 65.2517V16.6319C461.352 14.9349 460.683 13.3079 459.493 12.1085C458.304 10.9091 456.691 10.2353 455.01 10.2353Z" fill="white"/>
<path d="M401.618 72.9143H393.897C376.914 72.9143 362.665 59.3514 362.363 42.2182C362.292 38.0603 363.041 33.9297 364.567 30.067C366.094 26.2043 368.366 22.6867 371.253 19.7192C374.14 16.7517 377.583 14.3936 381.382 12.7822C385.181 11.1709 389.259 10.3385 393.38 10.3336H401.06C402.729 10.335 404.33 11.0052 405.51 12.1969C406.69 13.3886 407.352 15.0042 407.352 16.6888C407.352 18.3735 406.69 19.9891 405.51 21.1808C404.33 22.3725 402.729 23.0427 401.06 23.0441H393.769C383.744 23.0441 375.26 30.9596 374.958 41.0763C374.885 43.5651 375.307 46.0434 376.201 48.3643C377.094 50.6852 378.44 52.8015 380.159 54.5878C381.878 56.374 383.935 57.7937 386.208 58.7629C388.48 59.732 390.923 60.2308 393.39 60.2297H395.331V52.4795C395.331 50.794 395.994 49.1775 397.175 47.9857C398.356 46.7938 399.958 46.1243 401.628 46.1243C403.298 46.1243 404.9 46.7938 406.081 47.9857C407.262 49.1775 407.926 50.794 407.926 52.4795V66.5953C407.916 68.2763 407.247 69.885 406.065 71.0694C404.883 72.2537 403.284 72.9171 401.618 72.9143Z" fill="white"/>
<path d="M216.657 154.69H209.766C192.783 154.69 178.534 141.127 178.232 123.994C178.156 119.833 178.903 115.7 180.427 111.834C181.952 107.968 184.224 104.447 187.111 101.476C189.998 98.506 193.443 96.1456 197.244 94.5329C201.045 92.9201 205.126 92.0875 209.249 92.0833H216.929C217.756 92.0827 218.575 92.2466 219.34 92.5657C220.104 92.8849 220.798 93.353 221.383 93.9432C221.968 94.5335 222.432 95.2344 222.748 96.0057C223.065 96.7771 223.227 97.6038 223.226 98.4385C223.226 99.2731 223.063 100.1 222.747 100.871C222.43 101.642 221.967 102.342 221.382 102.932C220.797 103.522 220.103 103.991 219.339 104.31C218.575 104.629 217.756 104.794 216.929 104.794H209.638C199.613 104.794 191.124 112.709 190.827 122.821C190.753 125.31 191.175 127.789 192.068 130.11C192.961 132.432 194.307 134.549 196.026 136.336C197.745 138.122 199.802 139.543 202.075 140.512C204.348 141.482 206.791 141.981 209.259 141.979H216.668C218.338 141.979 219.94 142.649 221.121 143.841C222.302 145.033 222.965 146.649 222.965 148.335C222.965 149.17 222.802 149.997 222.485 150.769C222.168 151.541 221.703 152.242 221.117 152.832C220.531 153.422 219.836 153.89 219.071 154.209C218.305 154.528 217.485 154.691 216.657 154.69Z" fill="white"/>
<path d="M279.066 28.5312C278.917 18.3628 270.444 10.3336 260.362 10.3336H245.801V10.2871H239.463C237.782 10.2871 236.169 10.961 234.981 12.1606C233.792 13.3602 233.124 14.9871 233.124 16.6836V65.3035C233.124 67 233.792 68.6269 234.981 69.8265C236.169 71.0261 237.782 71.7 239.463 71.7C241.144 71.7 242.756 71.0261 243.945 69.8265C245.133 68.6269 245.801 67 245.801 65.3035V47.3229H250.041L266.087 68.4087C266.638 69.4014 267.441 70.2277 268.414 70.8026C269.387 71.3775 270.494 71.6802 271.621 71.6794H272.087C273.202 71.6791 274.298 71.3821 275.263 70.8182C276.228 70.2543 277.028 69.4435 277.583 68.4676C278.138 67.4917 278.429 66.3854 278.425 65.2601C278.421 64.1349 278.123 63.0306 277.561 62.0587L264.474 46.9354C268.644 46.0523 272.38 43.7334 275.043 40.3757C277.705 37.0181 279.127 32.8308 279.066 28.5312ZM245.786 23.0181H260.716C262.21 23.0632 263.629 23.694 264.67 24.7767C265.712 25.8595 266.294 27.309 266.294 28.8179C266.294 30.3268 265.712 31.7764 264.67 32.8591C263.629 33.9419 262.21 34.5727 260.716 34.6177H245.801L245.786 23.0181Z" fill="white"/>
<path d="M279.04 110.389C278.887 100.221 270.413 92.1658 260.337 92.1658H245.76V92.1193H239.437C237.756 92.1193 236.144 92.7932 234.955 93.9928C233.766 95.1924 233.099 96.8193 233.099 98.5158V147.136C233.099 148.832 233.766 150.459 234.955 151.659C236.144 152.858 237.756 153.532 239.437 153.532C241.116 153.528 242.724 152.852 243.909 151.653C245.095 150.454 245.76 148.83 245.76 147.136V129.171H249.995L266.046 150.256C266.596 151.248 267.399 152.074 268.371 152.649C269.343 153.224 270.449 153.527 271.575 153.527H272.041C273.156 153.526 274.251 153.229 275.216 152.665C276.181 152.101 276.981 151.29 277.537 150.315C278.092 149.34 278.383 148.234 278.38 147.108C278.377 145.983 278.08 144.879 277.52 143.906L264.448 128.793C268.618 127.909 272.354 125.59 275.016 122.233C277.678 118.875 279.101 114.689 279.04 110.389ZM245.76 104.887H260.685C261.454 104.863 262.22 104.996 262.938 105.277C263.655 105.558 264.309 105.982 264.861 106.523C265.414 107.063 265.853 107.711 266.152 108.426C266.452 109.141 266.607 109.91 266.607 110.686C266.607 111.463 266.452 112.231 266.152 112.947C265.853 113.662 265.414 114.309 264.861 114.85C264.309 115.391 263.655 115.814 262.938 116.095C262.22 116.376 261.454 116.509 260.685 116.486H245.76V104.887Z" fill="white"/>
<path d="M391.644 92.1247C390.218 92.1239 388.836 92.6187 387.729 93.5258C386.622 94.433 385.858 95.6971 385.567 97.1055L380.165 120.129L374.938 97.8496C374.804 96.288 374.096 94.8336 372.951 93.7737C371.807 92.7138 370.311 92.1254 368.758 92.1247H368.686C367.131 92.1216 365.631 92.7085 364.485 93.7689C363.338 94.8293 362.628 96.2858 362.496 97.8496L357.279 120.129L351.877 97.1055C351.586 95.6966 350.823 94.432 349.716 93.5247C348.609 92.6174 347.226 92.123 345.8 92.1247C344.878 92.1251 343.967 92.3329 343.135 92.7328C342.303 93.1328 341.569 93.7149 340.987 94.4369C340.406 95.1588 339.991 96.0025 339.773 96.9065C339.555 97.8106 339.54 98.7522 339.727 99.6631L351.201 148.552C351.201 148.593 351.201 148.629 351.237 148.671C351.302 148.957 351.386 149.238 351.488 149.513C351.524 149.606 351.565 149.694 351.606 149.781C351.693 149.978 351.79 150.174 351.892 150.36C351.949 150.453 351.995 150.551 352.051 150.639C352.197 150.868 352.358 151.088 352.532 151.295C352.604 151.378 352.676 151.461 352.753 151.538C352.913 151.708 353.084 151.866 353.265 152.013C353.314 152.066 353.367 152.114 353.423 152.158C353.652 152.349 353.896 152.521 354.15 152.675L354.355 152.794C354.619 152.939 354.893 153.065 355.174 153.171C355.471 153.276 355.776 153.357 356.086 153.414L356.316 153.455C356.629 153.509 356.946 153.537 357.263 153.538H357.299C357.617 153.536 357.933 153.509 358.246 153.455L358.472 153.414C358.781 153.357 359.086 153.276 359.383 153.171H359.409C359.69 153.065 359.964 152.939 360.228 152.794L360.433 152.675C360.687 152.52 360.93 152.347 361.16 152.158C361.215 152.113 361.268 152.064 361.318 152.013C361.499 151.866 361.67 151.708 361.83 151.538L362.051 151.295C362.224 151.087 362.383 150.868 362.527 150.639C362.583 150.551 362.634 150.453 362.685 150.36C362.793 150.173 362.89 149.979 362.977 149.781C363.013 149.694 363.059 149.606 363.09 149.513C363.196 149.239 363.282 148.957 363.346 148.671C363.355 148.63 363.367 148.591 363.382 148.552L368.742 125.699L374.108 148.552C374.118 148.592 374.13 148.632 374.144 148.671C374.204 148.958 374.288 149.24 374.395 149.513C374.426 149.606 374.472 149.694 374.508 149.781C374.59 149.977 374.682 150.169 374.784 150.355C374.835 150.448 374.886 150.546 374.943 150.634C375.087 150.864 375.248 151.084 375.424 151.29C375.493 151.375 375.567 151.456 375.644 151.533C375.804 151.703 375.975 151.861 376.156 152.008C376.212 152.055 376.264 152.112 376.32 152.153C376.548 152.345 376.791 152.517 377.047 152.67L377.247 152.788C377.51 152.934 377.784 153.06 378.066 153.166C378.363 153.271 378.668 153.352 378.977 153.409L379.203 153.45C379.516 153.504 379.832 153.531 380.15 153.533H380.186C380.505 153.531 380.823 153.504 381.138 153.45L381.363 153.409C381.673 153.352 381.978 153.271 382.275 153.166C382.554 153.059 382.826 152.933 383.089 152.788L383.293 152.67C383.548 152.516 383.791 152.343 384.02 152.153C384.077 152.112 384.128 152.055 384.184 152.008C384.364 151.86 384.535 151.701 384.696 151.533C384.773 151.455 384.845 151.373 384.916 151.29C385.091 151.082 385.252 150.863 385.398 150.634C385.454 150.546 385.5 150.448 385.556 150.355C385.663 150.166 385.759 149.971 385.843 149.771C385.884 149.683 385.925 149.601 385.961 149.508C386.064 149.233 386.148 148.952 386.212 148.665C386.212 148.624 386.237 148.588 386.248 148.547L397.722 99.658C397.91 98.7469 397.894 97.805 397.676 96.9008C397.458 95.9967 397.042 95.153 396.46 94.4313C395.878 93.7097 395.143 93.1281 394.31 92.7291C393.477 92.3301 392.566 92.1236 391.644 92.1247Z" fill="white"/>
<path d="M148.076 117.418C149.488 114.629 150.232 111.545 150.247 108.413V20.1528C150.244 16.5541 149.286 13.0218 147.471 9.92409C145.655 6.82634 143.05 4.27642 139.927 2.53997C136.803 0.803513 133.276 -0.0559405 129.711 0.0511397C126.146 0.15822 122.676 1.22792 119.66 3.14879L75.1211 31.5199L30.5771 3.15913C27.5722 1.21129 24.0989 0.125036 20.5291 0.0167266C16.9593 -0.0915833 13.4275 0.782127 10.3121 2.54427C7.17339 4.26076 4.55595 6.80583 2.73968 9.90737C0.923398 13.0089 -0.0234253 16.5503 0.000440263 20.1528V108.738C-0.00276243 112.077 0.819669 115.363 2.3932 118.3C3.96672 121.237 6.2416 123.731 9.01164 125.556L61.7067 160.432C64.8578 162.499 68.5207 163.631 72.2782 163.699C76.0357 163.768 79.7367 162.77 82.9598 160.82L140.621 125.634C143.378 123.936 145.683 121.586 147.339 118.788C147.39 118.715 147.456 118.664 147.503 118.586C147.546 118.509 147.585 118.43 147.62 118.348C147.738 118.142 147.825 117.925 147.933 117.718C147.968 117.615 148.04 117.522 148.076 117.418ZM16.3844 13.6581C17.5355 13.0059 18.8407 12.682 20.1602 12.7211C21.4798 12.7603 22.7639 13.161 23.875 13.8803L63.34 39.0066L47.3451 49.1956C45.9335 50.0931 44.9331 51.5198 44.5639 53.1617C44.1947 54.8036 44.487 56.5263 45.3764 57.9508C46.2659 59.3752 47.6796 60.3848 49.3066 60.7574C50.9337 61.1299 52.6407 60.835 54.0523 59.9374L78.3671 44.4369L78.5924 44.2974L126.372 13.8751C127.486 13.1658 128.768 12.7707 130.084 12.731C131.401 12.6913 132.704 13.0085 133.858 13.6495C135.011 14.2905 135.974 15.2318 136.645 16.3756C137.316 17.5194 137.67 18.8237 137.672 20.1528V104.822L86.7486 72.3791L101.97 62.7327C103.354 61.8244 104.328 60.4034 104.683 58.7765C105.037 57.1496 104.743 55.4473 103.865 54.0371C102.986 52.6269 101.594 51.6219 99.9871 51.239C98.3806 50.8562 96.6894 51.1262 95.2785 51.9908L12.57 104.419V20.1528C12.5635 18.8232 12.9148 17.5167 13.5866 16.3728C14.2584 15.2289 15.2255 14.2907 16.3844 13.6581ZM76.4574 149.959C75.2688 150.681 73.9034 151.053 72.5161 151.032C71.1287 151.011 69.775 150.598 68.6084 149.84L63.1812 146.223L92.227 127.721C93.6003 126.805 94.5631 125.383 94.9084 123.759C95.2538 122.134 94.9542 120.438 94.0741 119.035C93.1939 117.631 91.8033 116.632 90.201 116.251C88.5987 115.871 86.9125 116.14 85.5044 117L51.6152 138.587L42.0766 132.273L74.8446 111.384C75.5639 110.949 76.1898 110.374 76.6855 109.692C77.1813 109.009 77.5368 108.234 77.7313 107.411C77.9257 106.588 77.9551 105.734 77.8177 104.9C77.6804 104.065 77.3791 103.267 76.9314 102.552C76.4838 101.836 75.899 101.219 75.2113 100.735C74.5237 100.251 73.7471 99.9108 72.9272 99.7343C72.1074 99.5578 71.2608 99.5485 70.4374 99.707C69.6139 99.8655 68.8302 100.189 68.1323 100.657L30.5208 124.626L17.7208 116.147L74.9624 79.8659L131.902 116.137L76.4574 149.959Z" fill="white"/>
</g>
<defs>
<clipPath id="clip0">
<rect width="512" height="163.701" fill="white"/>
</clipPath>
</defs>
</svg>
