<?xml version="1.0" encoding="UTF-8" standalone="no"?>
<svg
   xmlns:dc="http://purl.org/dc/elements/1.1/"
   xmlns:cc="http://creativecommons.org/ns#"
   xmlns:rdf="http://www.w3.org/1999/02/22-rdf-syntax-ns#"
   xmlns:svg="http://www.w3.org/2000/svg"
   xmlns="http://www.w3.org/2000/svg"
   xmlns:sodipodi="http://sodipodi.sourceforge.net/DTD/sodipodi-0.dtd"
   xmlns:inkscape="http://www.inkscape.org/namespaces/inkscape"
   width="152"
   height="47"
   viewBox="0 0 152 47"
   version="1.1"
   id="svg39"
   sodipodi:docname="white.svg"
   style="fill:none"
   inkscape:version="0.92.5 (2060ec1f9f, 2020-04-08)">
  <metadata
     id="metadata43">
    <rdf:RDF>
      <cc:Work
         rdf:about="">
        <dc:format>image/svg+xml</dc:format>
        <dc:type
           rdf:resource="http://purl.org/dc/dcmitype/StillImage" />
        <dc:title></dc:title>
      </cc:Work>
    </rdf:RDF>
  </metadata>
  <sodipodi:namedview
     pagecolor="#ffffff"
     bordercolor="#666666"
     borderopacity="1"
     objecttolerance="10"
     gridtolerance="10"
     guidetolerance="10"
     inkscape:pageopacity="0"
     inkscape:pageshadow="2"
     inkscape:window-width="640"
     inkscape:window-height="480"
     id="namedview41"
     showgrid="false"
     inkscape:pagecheckerboard="true"
     inkscape:zoom="2.6052632"
     inkscape:cx="76"
     inkscape:cy="23.5"
     inkscape:window-x="0"
     inkscape:window-y="0"
     inkscape:window-maximized="0"
     inkscape:current-layer="svg39" />
  <g
     clip-path="url(#clip0)"
     id="g32">
    <path
       d="m 72.1132,25.774 c 2.7482,0 4.5947,-2.1023 4.5947,-5.2287 V 12.6788 H 74.759 v 7.8629 c 0,2.0735 -0.9886,3.3112 -2.6458,3.3112 -1.6571,0 -2.6448,-1.2377 -2.6448,-3.3112 v -7.8629 h -1.9498 v 7.8629 c 0,3.13 1.8464,5.2323 4.5946,5.2323 z"
       id="path2"
       inkscape:connector-curvature="0"
       style="fill:#ffffff" />
    <path
       d="m 80.9188,17.7939 c 0,-2.0734 0.9895,-3.3112 2.6458,-3.3112 1.6562,0 2.6448,1.2378 2.6448,3.3112 v 7.9801 h 1.9526 v -7.9801 c 0,-3.13 -1.8465,-5.2287 -4.5947,-5.2287 -2.7482,0 -4.5946,2.1032 -4.5946,5.2287 v 7.9801 h 1.9461 z"
       id="path4"
       inkscape:connector-curvature="0"
       style="fill:#ffffff" />
    <path
       d="m 92.5153,12.6788 h -1.9489 v 13.0961 h 1.9489 z"
       id="path6"
       inkscape:connector-curvature="0"
       style="fill:#ffffff" />
    <path
       d="m 103.427,12.6788 h -8.9514 v 1.9211 h 3.5009 V 25.774 h 1.9488 V 14.5999 h 3.5017 z"
       id="path8"
       inkscape:connector-curvature="0"
       style="fill:#ffffff" />
    <path
       d="m 99.9697,31.6897 h 3.5013 v 11.1751 h 1.948 V 31.6897 h 3.501 v -1.9211 h -8.9503 z"
       id="path10"
       inkscape:connector-curvature="0"
       style="fill:#ffffff" />
    <path
       d="m 113.874,23.8529 h -6.287 v -3.6655 h 3.676 v -1.922 h -3.676 v -3.6655 h 6.287 v -1.9211 h -8.237 V 25.774 h 8.237 z"
       id="path12"
       inkscape:connector-curvature="0"
       style="fill:#ffffff" />
    <path
       d="m 122.312,42.872 h 8.237 v -1.9211 h -6.288 v -3.6655 h 3.501 v -1.922 h -3.501 v -3.6656 h 6.288 v -1.9211 h -8.237 z"
       id="path14"
       inkscape:connector-curvature="0"
       style="fill:#ffffff" />
    <path
       d="m 125.099,19.2264 c 0,-4.1 -2.456,-6.5476 -6.569,-6.5476 h -2.427 V 25.774 h 2.427 c 4.111,0 6.569,-2.4476 6.569,-6.5476 z m -6.569,4.6265 h -0.479 v -9.2485 h 0.479 c 3.018,0 4.619,1.6002 4.619,4.6265 0,3.0264 -1.597,4.622 -4.619,4.622 z"
       id="path16"
       inkscape:connector-curvature="0"
       style="fill:#ffffff" />
    <path
       d="m 75.2092,35.4526 c 0.4969,-0.6175 0.7602,-1.3864 0.7444,-2.1744 0,-2.1204 -1.6974,-3.5447 -4.2252,-3.5447 h -4.0907 v 13.1196 h 5.9171 c 2.3842,0 3.9865,-1.5046 3.9865,-3.7449 0,-1.6714 -0.888,-3.0534 -2.3321,-3.6556 z m -3.4808,-0.6833 h -2.1409 v -3.2995 h 2.1409 c 1.039,0 2.2763,0.2812 2.2763,1.6227 0,1.4586 -1.4257,1.6768 -2.2763,1.6768 z m -2.1409,2.1068 h 3.9673 c 1.2374,0 2.0376,0.8113 2.0376,2.0581 0,1.172 -0.7234,1.8238 -2.0376,1.8238 h -3.9673 z"
       id="path18"
       inkscape:connector-curvature="0"
       style="fill:#ffffff" />
    <path
       d="m 87.2759,33.2782 c 0,-2.1204 -1.6983,-3.5447 -4.2252,-3.5447 H 78.96 v 13.1061 h 1.9489 v -5.9635 h 1.8291 l 4.0331,5.9635 h 2.3431 l -4.2371,-6.2637 c 1.5282,-0.5445 2.3988,-1.7372 2.3988,-3.2977 z M 85.327,33.0934 c 0,1.4577 -1.4267,1.6759 -2.2763,1.6759 h -2.1418 v -3.2995 h 2.1418 c 1.038,0 2.2763,0.2812 2.2763,1.6236 z"
       id="path20"
       inkscape:connector-curvature="0"
       style="fill:#ffffff" />
    <path
       d="m 140.967,33.2782 c 0,-2.1204 -1.698,-3.5447 -4.225,-3.5447 h -4.091 v 13.1061 h 1.95 v -5.9635 h 1.829 l 4.034,5.9635 h 2.342 l -4.236,-6.2637 c 1.527,-0.5445 2.397,-1.7372 2.397,-3.2977 z m -6.366,-1.8084 h 2.141 c 1.038,0 2.276,0.2812 2.276,1.6227 0,1.4577 -1.425,1.6759 -2.276,1.6759 h -2.141 z"
       id="path22"
       inkscape:connector-curvature="0"
       style="fill:#ffffff" />
    <path
       d="m 148.014,35.3562 h -0.342 c -0.77,0 -1.738,-0.2146 -1.98,-1.2369 -0.066,-0.2846 -0.066,-0.5803 0,-0.8649 0.067,-0.2845 0.198,-0.5504 0.384,-0.7777 0.196,-0.2452 0.446,-0.4434 0.732,-0.5797 0.285,-0.1363 0.597,-0.2072 0.914,-0.2073 h 3.531 l 0.148,-0.0063 v -1.7687 l -0.006,-0.1461 h -3.727 c -2.346,0 -3.984,1.5407 -3.984,3.7476 0,2.0734 1.766,3.7611 3.939,3.7611 h 0.387 c 0.769,0 1.738,0.2145 1.979,1.2359 0.067,0.2846 0.067,0.5803 0,0.8649 -0.067,0.2845 -0.198,0.5504 -0.384,0.7777 -0.196,0.2453 -0.446,0.4436 -0.731,0.58 -0.285,0.1363 -0.598,0.2071 -0.915,0.207 h -3.531 L 144.28,40.95 v 1.7687 l 0.007,0.1461 h 3.777 c 2.208,0 3.933,-1.7129 3.933,-3.9035 0,-2.1564 -1.599,-3.6051 -3.983,-3.6051 z"
       id="path24"
       inkscape:connector-curvature="0"
       style="fill:#ffffff" />
    <path
       d="m 117.981,35.3562 h -5.053 v -5.5876 h -1.949 v 13.0962 h 1.949 v -5.5875 h 5.053 v 5.5875 h 1.949 V 29.7686 h -1.949 z"
       id="path26"
       inkscape:connector-curvature="0"
       style="fill:#ffffff" />
    <path
       d="m 94.5939,29.7686 c -1.1866,0.0014 -2.3241,0.4667 -3.1632,1.2938 -0.8391,0.8271 -1.3111,1.9485 -1.3125,3.1182 v 4.2722 c 0,1.1702 0.4715,2.2924 1.3109,3.1198 0.8394,0.8274 1.9778,1.2922 3.1648,1.2922 1.1871,0 2.3255,-0.4648 3.1649,-1.2922 0.8394,-0.8274 1.3109,-1.9496 1.3109,-3.1198 V 34.1806 C 99.0683,33.0109 98.5962,31.8895 97.7572,31.0624 96.9181,30.2353 95.7805,29.77 94.5939,29.7686 Z m -2.5259,4.412 c -0.0064,-0.331 0.0542,-0.66 0.1783,-0.9677 0.1241,-0.3076 0.3092,-0.5878 0.5444,-0.8242 0.2352,-0.2363 0.5159,-0.424 0.8256,-0.5522 0.3097,-0.1282 0.6422,-0.1942 0.9781,-0.1942 0.3359,0 0.6684,0.066 0.9781,0.1942 0.3097,0.1282 0.5904,0.3159 0.8256,0.5522 0.2352,0.2364 0.4203,0.5166 0.5444,0.8242 0.1241,0.3077 0.1847,0.6367 0.1783,0.9677 v 4.2722 c -0.0126,0.6523 -0.2843,1.2737 -0.7567,1.7306 -0.4724,0.4569 -1.1079,0.7129 -1.7697,0.7129 -0.6619,0 -1.2973,-0.256 -1.7697,-0.7129 -0.4724,-0.4569 -0.7441,-1.0783 -0.7567,-1.7306 z"
       id="path28"
       inkscape:connector-curvature="0"
       style="fill:#ffffff" />
    <path
       d="m 50.2926,25.6383 -0.1829,-0.0297 c -0.4094,-0.0673 -0.8291,0.0284 -1.167,0.2661 -0.3378,0.2377 -0.5661,0.5979 -0.6346,1.0014 -0.7758,4.6635 -3.176,8.9148 -6.7878,12.0225 -3.0948,-0.586 -6.4877,-1.639 -9.9886,-3.085 0.9005,-0.4694 1.8007,-0.9595 2.7006,-1.4703 7.031,-4.0009 13.0615,-8.7915 16.9822,-13.492 C 55.4671,15.7587 56.7932,11.226 54.9641,8.08962 53.1899,5.06236 48.7672,3.89581 42.509,4.80633 l 0.0173,0.15146 C 41.9602,4.52326 41.3758,4.11037 40.7695,3.72543 36.646,1.11499 31.8064,-0.179215 26.9099,0.019041 22.0134,0.217297 17.2979,1.89838 13.4054,4.83338 7.06305,3.8859 2.59916,5.0281 0.806648,8.08962 -1.03067,11.226 0.298162,15.7587 4.54896,20.8513 c 3.92248,4.7005 9.95394,9.492 16.98314,13.4956 0.8974,0.5114 1.7976,1.0009 2.7006,1.4685 -3.8319,1.5822 -7.534,2.6955 -10.8566,3.2409 -5.06927,0.8312 -8.75489,0.2011 -9.85966,-1.6858 -0.86424,-1.4911 -0.26247,-3.9333 1.61875,-6.81 0.67042,2.1017 1.64006,4.0989 2.8799,5.932 0.11144,0.1736 0.25697,0.3236 0.42804,0.4411 0.17107,0.1175 0.36423,0.2 0.56813,0.2429 0.2039,0.0428 0.41443,0.0451 0.61923,0.0066 0.2048,-0.0385 0.39971,-0.1169 0.57331,-0.2307 0.1737,-0.1137 0.3225,-0.2606 0.4377,-0.4318 0.1153,-0.1713 0.1946,-0.3635 0.2334,-0.5654 0.0389,-0.2019 0.0364,-0.4095 -0.0073,-0.6104 C 10.8239,35.1438 10.74,34.9535 10.6206,34.785 8.98717,32.3715 7.901,29.6391 7.43618,26.7742 7.39553,26.474 7.26609,26.1922 7.06401,25.9639 6.86193,25.7357 6.59616,25.5712 6.29985,25.491 6.00354,25.4107 5.68981,25.4182 5.3978,25.5125 c -0.29202,0.0944 -0.54939,0.2714 -0.74001,0.509 -4.337679,5.1449 -5.70584,9.7218 -3.851142,12.8879 1.382792,2.361 4.355972,3.5853 8.558302,3.5853 1.35355,-0.0103 2.70445,-0.1202 4.04135,-0.3291 4.1563,3.1342 9.2434,4.8328 14.4763,4.8338 5.233,10e-4 10.3208,-1.6957 14.4782,-4.8284 6.3433,0.9502 10.8063,-0.2028 12.5988,-3.2616 1.829,-3.1291 0.513,-7.6502 -3.7158,-12.7284 -0.2399,-0.2885 -0.5779,-0.4814 -0.9512,-0.5427 z M 3.51644,9.63209 C 4.38983,8.14731 6.84813,7.44684 10.3207,7.61543 7.9612,10.15 6.19399,13.1635 5.14342,16.4439 3.26311,13.5663 2.6522,11.1133 3.51644,9.63209 Z M 23.0959,31.6721 C 16.7307,28.0499 11.2535,23.7803 7.5569,19.5784 9.44086,9.98007 17.8757,3.08085 27.8826,3.08085 c 7.9401,0 15.2812,4.56613 18.7025,11.62945 0.1818,0.3642 0.5019,0.6431 0.8909,0.7762 0.389,0.1331 0.8156,0.1096 1.1872,-0.0652 0.3716,-0.1749 0.6583,-0.4871 0.7979,-0.8689 0.1397,-0.3819 0.121,-0.8026 -0.0519,-1.1709 -1.0212,-2.1057 -2.3546,-4.04993 -3.9563,-5.76878 3.4661,-0.16407 5.939,0.54722 6.8014,2.01937 1.1048,1.88681 -0.1829,5.34771 -3.4496,9.25941 -3.6902,4.4218 -9.4198,8.96 -16.1308,12.7806 -1.594,0.9069 -3.2009,1.7444 -4.7885,2.5098 -1.5959,-0.7645 -3.1927,-1.6038 -4.7895,-2.5098 z m 4.7867,12.2434 C 24.317,43.9139 20.8122,43.005 17.7074,41.2767 c 3.2311,-0.8393 6.6762,-2.086 10.1725,-3.6817 3.51,1.602 6.9697,2.8542 10.2127,3.6962 -3.1169,1.7276 -6.634,2.6316 -10.21,2.6243 z m 24.3672,-6.5486 c -0.8679,1.4821 -3.3271,2.1889 -6.8015,2.0203 2.3609,-2.5362 4.1288,-5.552 5.1791,-8.8348 1.8803,2.8812 2.4894,5.3342 1.6224,6.8145 z"
       id="path30"
       inkscape:connector-curvature="0"
       style="fill:#ffffff" />
  </g>
  <defs
     id="defs37">
    <clipPath
       id="clip0">
      <rect
         width="152"
         height="47"
         id="rect34"
         x="0"
         y="0"
         style="fill:#ffffff" />
    </clipPath>
  </defs>
</svg>
